<svg width="48" height="52" viewBox="0 0 48 52" fill="none" xmlns="http://www.w3.org/2000/svg">
<path d="M45.8447 31.7588C46.8231 33.7184 47.3383 35.9416 47.3388 38.2048C47.3393 40.468 46.8248 42.6916 45.8472 44.6517C44.8696 46.6117 43.4632 48.2392 41.7698 49.3704C40.0763 50.5015 38.1552 51.0967 36.2 51.0958H11.283C9.32787 51.0963 7.40712 50.5009 5.7139 49.3695C4.02068 48.238 2.61468 46.6105 1.63731 44.6505C0.659939 42.6906 0.145655 40.4672 0.14618 38.2042C0.146704 35.9411 0.662019 33.7182 1.6403 31.7588L14.0998 6.78691C15.0767 4.82758 16.4822 3.20051 18.1746 2.06925C19.8671 0.937976 21.7871 0.342407 23.7414 0.342407C25.6959 0.342407 27.6158 0.937976 29.3084 2.06925C31.0008 3.20051 32.4062 4.82758 33.3831 6.78691L45.8447 31.7588ZM13.3155 15.4922L17.1247 23.1426C17.3504 23.5947 17.6749 23.97 18.0658 24.2309C18.4565 24.4916 18.8997 24.6287 19.3508 24.6285H28.2507C28.7018 24.6285 29.1449 24.4913 29.5356 24.2305C29.9263 23.9697 30.2508 23.5945 30.4768 23.1426L34.2755 15.5211L30.3228 7.59121L25.2882 17.6836C25.1379 17.9857 24.9214 18.2366 24.6606 18.4109C24.3998 18.5855 24.1041 18.6773 23.8029 18.6773C23.5017 18.6773 23.2058 18.5855 22.945 18.4109C22.6842 18.2366 22.4677 17.9857 22.3174 17.6836L17.2662 7.56955L13.3155 15.4922ZM22.1905 37.0204L17.7489 28.0986C17.5238 27.6462 17.1997 27.2705 16.8092 27.0093C16.4188 26.748 15.9759 26.6104 15.525 26.6104H7.8815L3.92874 34.5426H14.0291C14.3302 34.5429 14.6258 34.6348 14.8865 34.8093C15.1471 34.9837 15.3635 35.2342 15.514 35.536C15.6645 35.8378 15.7438 36.1802 15.7438 36.5286C15.744 36.8772 15.6648 37.2194 15.5145 37.5214L10.4799 47.6136H18.3855L22.1864 39.9945C22.4119 39.5425 22.5309 39.03 22.5318 38.5081C22.5325 37.9862 22.4147 37.4733 22.1905 37.0204ZM33.5599 34.5426H43.6581L39.7054 26.6104H32.0683C31.6173 26.6104 31.1743 26.748 30.7839 27.0093C30.3935 27.2705 30.0695 27.6462 29.8443 28.0986L25.3943 37.0204C25.1685 37.4724 25.0495 37.9854 25.0495 38.5075C25.0495 39.0295 25.1685 39.5425 25.3943 39.9945L29.1911 47.6136H37.0966L32.0621 37.5214C31.9111 37.2184 31.832 36.8747 31.8326 36.5249C31.8333 36.1754 31.9136 35.832 32.0656 35.5299C32.2176 35.2276 32.4358 34.9772 32.6982 34.8038C32.9605 34.6304 33.2579 34.5403 33.5599 34.5426Z" fill="#1A1A1A"/>
</svg>
