<svg width="60" height="60" viewBox="0 0 60 60" fill="none" xmlns="http://www.w3.org/2000/svg">
<rect width="60" height="60" rx="9" fill="#D9D9D9"/>
<rect width="38" height="43" transform="translate(11 9)" fill="#DDDDDD"/>
<path d="M46.2857 11.6875H13.7058C12.2129 11.6875 11 12.9053 11 14.4002V46.5998C11 48.0947 12.2129 49.3125 13.7058 49.3125H46.2857C47.7786 49.3125 49 48.0947 49 46.5998V14.4002C49 12.9053 47.7786 11.6875 46.2857 11.6875ZM22.4848 43.9375H16.8527V25.9816H22.4933V43.9375H22.4848ZM19.6687 23.5293C17.8621 23.5293 16.4031 22.0764 16.4031 20.2959C16.4031 18.5154 17.8621 17.0625 19.6687 17.0625C21.467 17.0625 22.9344 18.5154 22.9344 20.2959C22.9344 22.0848 21.4754 23.5293 19.6687 23.5293ZM43.5969 43.9375H37.9647V35.2031C37.9647 33.1203 37.9223 30.4412 35.0384 30.4412C32.1036 30.4412 31.654 32.7088 31.654 35.052V43.9375H26.0219V25.9816H31.425V28.434H31.5013C32.2562 27.023 34.0969 25.5365 36.8366 25.5365C42.5366 25.5365 43.5969 29.257 43.5969 34.0945V43.9375Z" fill="#0D0D0D"/>
</svg>
